# Made in Blockbench 4.12.4
mtllib engine_suplex_sd305.mtl

o cuboid
v 0.5 0.5 0.5
v 0.5 0.5 -0.5
v 0.5 0 0.5
v 0.5 0 -0.5
v -0.5 0.5 0.5
v -0.5 0.5 -0.5
v -0.5 0 0.5
v -0.5 0 -0.5
vt 1.0071428571428571 1
vt -0.0009523809523808983 1
vt -0.0009523809523808983 -0.0007142857142858894
vt 1.0071428571428571 -0.0007142857142858894
vt 1.0071428571428571 -0.0007142857142858894
vt 1.0071428571428571 1
vt -0.0009523809523808983 1
vt -0.0009523809523808983 -0.0007142857142858894
vt 0 -0.0014285714285715567
vt 1.0009523809523808 -0.0014285714285715567
vt 1.0009523809523808 1
vt 0 1
vt 1.0009523809523808 -0.0014285714285715567
vt 1.0009523809523808 1
vt 0 1
vt 0 -0.0014285714285715567
vt 1.0071428571428571 -0.0007142857142858894
vt 1.0071428571428571 1
vt -0.0009523809523808983 1
vt -0.0009523809523808983 -0.0007142857142858894
vt 1.0071428571428571 1
vt -0.0009523809523808983 1
vt -0.0009523809523808983 -0.0007142857142858894
vt 1.0071428571428571 -0.0007142857142858894
vn 1 0 0
vn -1 0 0
vn 0 1 0
vn 0 -1 0
vn 0 0 1
vn 0 0 -1
usemtl m_02422f98-ed7e-7afd-be87-d8bbe1dc6261
f 2/1/1 1/2/1 3/3/1 4/4/1
f 7/5/2 5/6/2 6/7/2 8/8/2
f 5/9/3 1/10/3 2/11/3 6/12/3
f 4/13/4 3/14/4 7/15/4 8/16/4
f 3/17/5 1/18/5 5/19/5 7/20/5
f 6/21/6 2/22/6 4/23/6 8/24/6