# Made in Blockbench 4.8.3
mtllib opt_hitch.mtl

o cuboid
v 0.109375 0.2812499999999999 -5.551115123125783e-16
v 0.109375 0.28125 0.021874999999999534
v 0.109375 -0.04531249999999998 0
v 0.109375 -0.04531250000000009 0.021874999999999423
v -0.109375 0.2812499999999999 -5.551115123125783e-16
v -0.109375 0.28125 0.021874999999999534
v -0.109375 -0.04531249999999998 0
v -0.109375 -0.04531250000000009 0.021874999999999423
vt 0.6656249999999999 0.0625
vt 0.6671875 0.25
vt 0.6453125 0.25
vt 0.6453125 0.0625
vt 0.5625 0.375
vt 0.5 0.375
vt 0.5015625 0.1875
vt 0.5625 0.1875
vt 0.5 0.5
vt 0.5 0.4375
vt 0.75 0.4375
vt 0.75 0.5
vt 0.8125 1
vt 0.5625 1
vt 0.5625 0.9375
vt 0.8125 0.9375
vt 0.25 0.75
vt 0 0.75
vt 0 0.5625
vt 0.25 0.5625
vt 0.25 0.8125
vt 0.25 1
vt 0 1
vt 0 0.8125
vn 1 0 0
vn -1 0 0
vn 0 1 -5.075305255429267e-15
vn 0 -1 -5.075305255429421e-15
vn 0 -1.6998630042107666e-15 -1
vn 0 -3.399726008421531e-16 1
usemtl m_4114b405-256f-c55e-4a89-07e8b5477af0
f 3/1/1 1/2/1 2/3/1 4/4/1
f 6/5/2 5/6/2 7/7/2 8/8/2
f 2/9/3 1/10/3 5/11/3 6/12/3
f 7/13/4 3/14/4 4/15/4 8/16/4
f 5/17/5 1/18/5 3/19/5 7/20/5
f 4/21/6 2/22/6 6/23/6 8/24/6
o cuboid
v 0.03125 0.09531249999999955 0.09374999999999944
v 0.03125 0.09531249999999988 0.14687499999999953
v 0.03125 0.015625000000000278 0.09421600877192926
v 0.03125 0.015624999999999889 0.14687499999999948
v -0.03125 0.09531249999999955 0.09374999999999944
v -0.03125 0.09531249999999988 0.14687499999999953
v -0.03125 0.015625000000000278 0.09421600877192926
v -0.03125 0.015624999999999889 0.14687499999999948
vt 0.30734374999999997 0.0625
vt 0.3078125 0.125
vt 0.2546875 0.125
vt 0.2546875 0.0625
vt 0.875 0.625
vt 0.8125 0.625
vt 0.81296875 0.5625
vt 0.875 0.5625
vt 0 0.125
vt 0 0.0625
vt 0.0625 0.0625
vt 0.0625 0.125
vt 0.9375 1
vt 0.875 1
vt 0.875 0.9375
vt 0.9375 0.9375
vt 0.1875 0.125
vt 0.125 0.125
vt 0.125 0.0625
vt 0.1875 0.0625
vt 0.875 0.4375
vt 0.875 0.5
vt 0.8125 0.5
vt 0.8125 0.4375
vn 1 0 0
vn -1 0 0
vn 0 1 -6.269494727294991e-15
vn 0 -1 -7.379139811771988e-15
vn 0 -0.005847853223158743 -0.9999829011601552
vn 0 -6.966105252550003e-16 1
usemtl m_4114b405-256f-c55e-4a89-07e8b5477af0
f 11/25/7 9/26/7 10/27/7 12/28/7
f 14/29/8 13/30/8 15/31/8 16/32/8
f 10/33/9 9/34/9 13/35/9 14/36/9
f 15/37/10 11/38/10 12/39/10 16/40/10
f 13/41/11 9/42/11 11/43/11 15/44/11
f 12/45/12 10/46/12 14/47/12 16/48/12
o cuboid
v 0.09375 0.015624999999999889 -5.551115123125783e-16
v 0.03125 0.015625 0.17812499999999953
v 0.09375 -0.029687499999999978 0.001562499999999467
v 0.03125 -0.02968750000000009 0.17812499999999942
v -0.09375 0.015624999999999889 -5.551115123125783e-16
v -0.03125 0.015625 0.17812499999999953
v -0.09375 -0.029687499999999978 0.001562499999999467
v -0.03125 -0.02968750000000009 0.17812499999999942
vt 0.811025 0.8125
vt 0.8125 0.875
vt 0.6237312500000001 0.875
vt 0.6237312500000001 0.8125
vt 0.8125 0.375
vt 0.625 0.375
vt 0.626475 0.3125
vt 0.8125 0.3125
vt 0.375 1
vt 0.3125 0.8125
vt 0.5 0.8125
vt 0.4375 1
vt 0.5 0.75
vt 0.3125 0.75
vt 0.375 0.5625
vt 0.4375 0.5625
vt 0.75 0.625
vt 0.5625 0.625
vt 0.5625 0.5625
vt 0.75 0.5625
vt 0.8125 0.1875
vt 0.8125 0.25
vt 0.75 0.25
vt 0.75 0.1875
vn 0.9435384919751097 0.01141607370810799 0.331066137535126
vn -0.9435384919751097 0.01141607370810799 0.331066137535126
vn 0 1 -6.232831015439472e-16
vn 0 -1 -6.287988812036287e-16
vn 0 -0.034462275839779476 -0.9994059993535876
vn 0 -2.4501473646899957e-15 1
usemtl m_4114b405-256f-c55e-4a89-07e8b5477af0
f 19/49/13 17/50/13 18/51/13 20/52/13
f 22/53/14 21/54/14 23/55/14 24/56/14
f 18/57/15 17/58/15 21/59/15 22/60/15
f 23/61/16 19/62/16 20/63/16 24/64/16
f 21/65/17 17/66/17 19/67/17 23/68/17
f 20/69/18 18/70/18 22/71/18 24/72/18
o cuboid
v 0.09375 0.2656249999999999 -5.551115123125783e-16
v 0.03125 0.265625 0.17812499999999953
v 0.09375 0.22031250000000002 0.001562499999999467
v 0.03125 0.2203124999999999 0.17812499999999942
v -0.09375 0.2656249999999999 -5.551115123125783e-16
v -0.03125 0.265625 0.17812499999999953
v -0.09375 0.22031250000000002 0.001562499999999467
v -0.03125 0.2203124999999999 0.17812499999999942
vt 0.811025 0.6875
vt 0.8125 0.75
vt 0.6237312500000001 0.75
vt 0.6237312500000001 0.6875
vt 0.4375 0.25
vt 0.25 0.25
vt 0.251475 0.1875
vt 0.4375 0.1875
vt 0.0625 0.5
vt 0 0.3125
vt 0.1875 0.3125
vt 0.125 0.5
vt 0.4375 0.5
vt 0.25 0.5
vt 0.3125 0.3125
vt 0.375 0.3125
vt 0.1875 0.25
vt 0 0.25
vt 0 0.1875
vt 0.1875 0.1875
vt 0.9375 0.8125
vt 0.9375 0.875
vt 0.875 0.875
vt 0.875 0.8125
vn 0.9435384919751097 0.01141607370810799 0.331066137535126
vn -0.9435384919751097 0.01141607370810799 0.331066137535126
vn 0 1 -6.232831015439472e-16
vn 0 -1 -6.287988812036287e-16
vn 0 -0.034462275839779476 -0.9994059993535876
vn 0 -2.4501473646899957e-15 1
usemtl m_4114b405-256f-c55e-4a89-07e8b5477af0
f 27/73/19 25/74/19 26/75/19 28/76/19
f 30/77/20 29/78/20 31/79/20 32/80/20
f 26/81/21 25/82/21 29/83/21 30/84/21
f 31/85/22 27/86/22 28/87/22 32/88/22
f 29/89/23 25/90/23 27/91/23 31/92/23
f 28/93/24 26/94/24 30/95/24 32/96/24
o cuboid
v 0.09375 0.1406249999999999 -5.551115123125783e-16
v 0.03125 0.140625 0.17812499999999953
v 0.09375 0.09531250000000002 0.001562499999999467
v 0.03125 0.09531249999999991 0.17812499999999942
v -0.09375 0.1406249999999999 -5.551115123125783e-16
v -0.03125 0.140625 0.17812499999999953
v -0.09375 0.09531250000000002 0.001562499999999467
v -0.03125 0.09531249999999991 0.17812499999999942
vt 0.811025 0.8125
vt 0.8125 0.875
vt 0.6237312500000001 0.875
vt 0.6237312500000001 0.8125
vt 0.8125 0.375
vt 0.625 0.375
vt 0.626475 0.3125
vt 0.8125 0.3125
vt 0.375 1
vt 0.3125 0.8125
vt 0.5 0.8125
vt 0.4375 1
vt 0.5 0.75
vt 0.3125 0.75
vt 0.375 0.5625
vt 0.4375 0.5625
vt 0.75 0.625
vt 0.5625 0.625
vt 0.5625 0.5625
vt 0.75 0.5625
vt 0.8125 0.1875
vt 0.8125 0.25
vt 0.75 0.25
vt 0.75 0.1875
vn 0.9435384919751097 0.01141607370810799 0.331066137535126
vn -0.9435384919751097 0.01141607370810799 0.331066137535126
vn 0 1 -6.232831015439472e-16
vn 0 -1 -6.287988812036287e-16
vn 0 -0.034462275839779476 -0.9994059993535876
vn 0 -2.4501473646899957e-15 1
usemtl m_4114b405-256f-c55e-4a89-07e8b5477af0
f 35/97/25 33/98/25 34/99/25 36/100/25
f 38/101/26 37/102/26 39/103/26 40/104/26
f 34/105/27 33/106/27 37/107/27 38/108/27
f 39/109/28 35/110/28 36/111/28 40/112/28
f 37/113/29 33/114/29 35/115/29 39/116/29
f 36/117/30 34/118/30 38/119/30 40/120/30
o cuboid
v 0.03125 0.22031249999999952 0.09374999999999944
v 0.03125 0.22031249999999986 0.14687499999999953
v 0.03125 0.14062500000000025 0.09421600877192926
v 0.03125 0.14062499999999986 0.14687499999999948
v -0.03125 0.22031249999999952 0.09374999999999944
v -0.03125 0.22031249999999986 0.14687499999999953
v -0.03125 0.14062500000000025 0.09421600877192926
v -0.03125 0.14062499999999986 0.14687499999999948
vt 0.30734374999999997 0.0625
vt 0.3078125 0.125
vt 0.2546875 0.125
vt 0.2546875 0.0625
vt 0.875 0.625
vt 0.8125 0.625
vt 0.81296875 0.5625
vt 0.875 0.5625
vt 0 0.125
vt 0 0.0625
vt 0.0625 0.0625
vt 0.0625 0.125
vt 0.9375 1
vt 0.875 1
vt 0.875 0.9375
vt 0.9375 0.9375
vt 0.1875 0.125
vt 0.125 0.125
vt 0.125 0.0625
vt 0.1875 0.0625
vt 0.875 0.4375
vt 0.875 0.5
vt 0.8125 0.5
vt 0.8125 0.4375
vn 1 0 0
vn -1 0 0
vn 0 1 -6.269494727294991e-15
vn 0 -1 -7.379139811771988e-15
vn 0 -0.005847853223158743 -0.9999829011601552
vn 0 -6.966105252550003e-16 1
usemtl m_4114b405-256f-c55e-4a89-07e8b5477af0
f 43/121/31 41/122/31 42/123/31 44/124/31
f 46/125/32 45/126/32 47/127/32 48/128/32
f 42/129/33 41/130/33 45/131/33 46/132/33
f 47/133/34 43/134/34 44/135/34 48/136/34
f 45/137/35 41/138/35 43/139/35 47/140/35
f 44/141/36 42/142/36 46/143/36 48/144/36
o cuboid
v 0.03125 0.2984374999999995 0.09374999999999944
v 0.03125 0.29843749999999986 0.14687499999999953
v 0.03125 0.2656250000000002 0.09421600877192926
v 0.03125 0.2656249999999999 0.14687499999999948
v -0.03125 0.2984374999999995 0.09374999999999944
v -0.03125 0.29843749999999986 0.14687499999999953
v -0.03125 0.2656250000000002 0.09421600877192926
v -0.03125 0.2656249999999999 0.14687499999999948
vt 0.30734374999999997 0.0625
vt 0.3078125 0.125
vt 0.2546875 0.125
vt 0.2546875 0.0625
vt 0.875 0.625
vt 0.8125 0.625
vt 0.81296875 0.5625
vt 0.875 0.5625
vt 0 0.125
vt 0 0.0625
vt 0.0625 0.0625
vt 0.0625 0.125
vt 0.9375 1
vt 0.875 1
vt 0.875 0.9375
vt 0.9375 0.9375
vt 0.1875 0.125
vt 0.125 0.125
vt 0.125 0.0625
vt 0.1875 0.0625
vt 0.875 0.4375
vt 0.875 0.5
vt 0.8125 0.5
vt 0.8125 0.4375
vn 1 0 0
vn -1 0 0
vn 0 1 -6.269494727294991e-15
vn 0 -1 -7.379139811771988e-15
vn 0 -0.014200740012472799 -0.9998991644076407
vn 0 -1.6917684184764293e-15 1
usemtl m_4114b405-256f-c55e-4a89-07e8b5477af0
f 51/145/37 49/146/37 50/147/37 52/148/37
f 54/149/38 53/150/38 55/151/38 56/152/38
f 50/153/39 49/154/39 53/155/39 54/156/39
f 55/157/40 51/158/40 52/159/40 56/160/40
f 53/161/41 49/162/41 51/163/41 55/164/41
f 52/165/42 50/166/42 54/167/42 56/168/42