# Made in Blockbench 4.8.3
mtllib opt handles.mtl

o cuboid
v 0.015625 0.08738697662221173 -0.007989269698255336
v 0.015625 0.12124167789844309 -0.03639673705275806
v 0.015625 -0.03713736063925648 -0.018883737541712603
v 0.015625 -0.034413743678392165 -0.050014821857079644
v -0.015625 0.08738697662221173 -0.007989269698255336
v -0.015625 0.12124167789844309 -0.03639673705275806
v -0.015625 -0.03713736063925648 -0.018883737541712603
v -0.015625 -0.034413743678392165 -0.050014821857079644
vt 0.3125 0.75
vt 0.25 0.71875
vt 0.25 0.5625
vt 0.3125 0.5625
vt 0.375 0.8125
vt 0.375 0.96875
vt 0.3125 1
vt 0.3125 0.8125
vt 0.5625 0.9375
vt 0.625 0.9375
vt 0.625 1
vt 0.5625 1
vt 0.0625 0.375
vt 0.0625 0.4375
vt 0 0.4375
vt 0 0.375
vt 0.4375 0.375
vt 0.4375 0.5
vt 0.375 0.5
vt 0.375 0.375
vt 0.4375 0.75
vt 0.375 0.75
vt 0.375 0.5625
vt 0.4375 0.5625
vn 1 0 0
vn -1 0 0
vn 0 0.6427876096865394 0.7660444431189781
vn 0 -0.9961946980917455 -0.08715574274765818
vn 0 -0.08715574274765818 0.9961946980917455
vn 0 0.08715574274765818 -0.9961946980917455
usemtl m_ad3b646c-91fe-f428-b414-c4349d28dc42
f 2/1/1 1/2/1 3/3/1 4/4/1
f 7/5/2 5/6/2 6/7/2 8/8/2
f 5/9/3 1/10/3 2/11/3 6/12/3
f 4/13/4 3/14/4 7/15/4 8/16/4
f 3/17/5 1/18/5 5/19/5 7/20/5
f 6/21/6 2/22/6 4/23/6 8/24/6
o cuboid
v 0.015625 0.12124167789844309 -0.03639673705275806
v 0.015625 0.1403069966244933 -0.25431432726032743
v 0.015625 0.09011059358307605 -0.03912035401362238
v 0.015625 0.10917591230912627 -0.25703794422119175
v -0.015625 0.12124167789844309 -0.03639673705275806
v -0.015625 0.1403069966244933 -0.25431432726032743
v -0.015625 0.09011059358307605 -0.03912035401362238
v -0.015625 0.10917591230912627 -0.25703794422119175
vt 0.25 1
vt 0 1
vt 0 0.9375
vt 0.25 0.9375
vt 0.25 0.8125
vt 0.25 0.875
vt 0 0.875
vt 0 0.8125
vt 0 0.5
vt 0.0625 0.5
vt 0.0625 0.75
vt 0 0.75
vt 0.1875 0.5
vt 0.1875 0.75
vt 0.125 0.75
vt 0.125 0.5
vt 0.1875 0.375
vt 0.1875 0.4375
vt 0.125 0.4375
vt 0.125 0.375
vt 0.625 0.875
vt 0.5625 0.875
vt 0.5625 0.8125
vt 0.625 0.8125
vn 1 0 0
vn -1 0 0
vn 0 0.9961946980917455 0.08715574274765818
vn 0 -0.9961946980917455 -0.08715574274765818
vn 0 -0.08715574274765818 0.9961946980917455
vn 0 0.08715574274765818 -0.9961946980917455
usemtl m_ad3b646c-91fe-f428-b414-c4349d28dc42
f 10/25/7 9/26/7 11/27/7 12/28/7
f 15/29/8 13/30/8 14/31/8 16/32/8
f 13/33/9 9/34/9 10/35/9 14/36/9
f 12/37/10 11/38/10 15/39/10 16/40/10
f 11/41/11 9/42/11 13/43/11 15/44/11
f 14/45/12 10/46/12 12/47/12 16/48/12
o cuboid
v 0.015625 0.11189952926999058 -0.2881690285365588
v 0.015625 0.1403069966244933 -0.25431432726032743
v 0.015625 -0.012624807991477615 -0.29906349638001606
v 0.015625 -0.015348424952341932 -0.267932412064649
v -0.015625 0.11189952926999058 -0.2881690285365588
v -0.015625 0.1403069966244933 -0.25431432726032743
v -0.015625 -0.012624807991477615 -0.29906349638001606
v -0.015625 -0.015348424952341932 -0.267932412064649
vt 0.5 0.8125
vt 0.5 0.96875
vt 0.4375 1
vt 0.4375 0.8125
vt 0.3125 0.5
vt 0.25 0.46875
vt 0.25 0.3125
vt 0.3125 0.3125
vt 0.625 0.625
vt 0.625 0.5625
vt 0.6875 0.5625
vt 0.6875 0.625
vt 0.625 0.6875
vt 0.6875 0.6875
vt 0.6875 0.75
vt 0.625 0.75
vt 0.5625 0.5
vt 0.5 0.5
vt 0.5 0.375
vt 0.5625 0.375
vt 0.5625 0.5625
vt 0.5625 0.75
vt 0.5 0.75
vt 0.5 0.5625
vn 1 0 0
vn -1 0 0
vn 0 0.7660444431189781 -0.6427876096865394
vn 0 -0.9961946980917455 -0.08715574274765818
vn 0 0.08715574274765818 -0.9961946980917455
vn 0 -0.08715574274765818 0.9961946980917455
usemtl m_ad3b646c-91fe-f428-b414-c4349d28dc42
f 19/49/13 17/50/13 18/51/13 20/52/13
f 22/53/14 21/54/14 23/55/14 24/56/14
f 18/57/15 17/58/15 21/59/15 22/60/15
f 23/61/16 19/62/16 20/63/16 24/64/16
f 21/65/17 17/66/17 19/67/17 23/68/17
f 20/69/18 18/70/18 22/71/18 24/72/18