# Made in Blockbench 4.12.5
mtllib rearbumper_bar_steel.mtl

o cuboid
v 0.609375 -0.421875 -0.0625
v 0.609375 -0.421875 0
v 0.609375 -0.515625 -0.046875
v 0.515625 -0.421875 -0.0625
v 0.515625 -0.421875 0
v 0.515625 -0.515625 -0.046875
v 0.609375 0 0.0625
v 0.609375 0 -0.09375
v 0.609375 -0.421875 0
v 0.609375 -0.421875 -0.09375
v 0.515625 0 0.0625
v 0.515625 0 -0.09375
v 0.515625 -0.421875 0
v 0.515625 -0.421875 -0.09375
v 1.46875 -0.4375 -0.140625
v 1.46875 -0.4375 -0.046875
v 1.46875 -0.515625 -0.046875
v 1.46875 -0.515625 -0.140625
v -1.46875 -0.515625 -0.046875
v -1.46875 -0.4375 -0.046875
v -1.46875 -0.4375 -0.140625
v -1.46875 -0.515625 -0.140625
v -1.46875 -0.421875 -0.0625
v 1.46875 -0.421875 -0.0625
v 1.46875 -0.421875 -0.125
v -1.46875 -0.421875 -0.125
v 1.46875 -0.53125 -0.125
v 1.46875 -0.53125 -0.0625
v -1.46875 -0.53125 -0.0625
v -1.46875 -0.53125 -0.125
v -0.609375 0 0.0625
v -0.609375 0 -0.09375
v -0.609375 -0.421875 0
v -0.609375 -0.421875 -0.09375
v -0.515625 0 0.0625
v -0.515625 0 -0.09375
v -0.515625 -0.421875 0
v -0.515625 -0.421875 -0.09375
v -0.609375 0.21875 -0.09375
v -0.609375 0.1875 -0.125
v -0.609375 -0.421875 -0.09375
v -0.609375 -0.421875 -0.125
v -0.515625 0.21875 -0.09375
v -0.515625 0.1875 -0.125
v -0.515625 -0.421875 -0.09375
v -0.515625 -0.421875 -0.125
v 0.609375 0.21875 -0.09375
v 0.609375 0.1875 -0.125
v 0.609375 -0.421875 -0.09375
v 0.609375 -0.421875 -0.125
v 0.515625 0.21875 -0.09375
v 0.515625 0.1875 -0.125
v 0.515625 -0.421875 -0.09375
v 0.515625 -0.421875 -0.125
v -0.609375 -0.421875 -0.0625
v -0.609375 -0.421875 0
v -0.609375 -0.515625 -0.046875
v -0.515625 -0.421875 -0.0625
v -0.515625 -0.421875 0
v -0.515625 -0.515625 -0.046875
vt 0.4296875 0.8799479166666667
vt 0.42761948529411764 0.8888020833333333
vt 0.42761948529411764 0.8799479166666667
vt 0.4296875 0.8888020833333333
vt 0.42761948529411764 0.8799479166666667
vt 0.41613051470588247 0.9375
vt 0.4296875 0.87109375
vt 0.42761948529411764 0.87109375
vt 0.42761948529411764 0.8888020833333333
vt 0.4296875 0.8888020833333333
vt 0.42761948529411764 0.87109375
vt 0.42761948529411764 0.8888020833333333
vt 0.4296875 0.8888020833333333
vt 0.41613051470588247 0.9286458333333334
vt 0.42761948529411764 0.8888020833333333
vt 0.4296875 0.8888020833333333
vt 0.4296875 0.8799479166666667
vt 0.4140625 0.9375
vt 0.42761948529411764 0.8888020833333333
vt 0.4296875 0.8888020833333333
vt 0.4296875 0.8799479166666667
vt 0.42761948529411764 0.8799479166666667
vt 0.42761948529411764 0.8799479166666667
vt 0.42761948529411764 0.8888020833333333
vt 0.4296875 0.8888020833333333
vt 0.41613051470588247 0.9375
vt 0.4296875 0.87109375
vt 0.42761948529411764 0.87109375
vt 0.42761948529411764 0.8888020833333333
vt 0.4296875 0.8888020833333333
vt 0.42761948529411764 0.87109375
vt 0.42761948529411764 0.8888020833333333
vt 0.4296875 0.8888020833333333
vt 0.41613051470588247 0.9286458333333334
vt 0.42761948529411764 0.8799479166666667
vt 0.42761948529411764 0.8888020833333333
vt 0.4296875 0.8888020833333333
vt 0.4296875 0.8799479166666667
vt 0.42761948529411764 0.8888020833333333
vt 0.4296875 0.8888020833333333
vt 0.4296875 0.8799479166666667
vt 0.4140625 0.9375
vt 0.43600546875 0.9056072265625
vt 0.43600546875 0.9056072265625
vt 0.43600546875 0.9056072265625
vt 0.43600546875 0.9056072265625
vt 0.43600546875 0.9056071875
vt 0.43600546875 0.9056071875
vt 0.43600546875 0.9056071875
vt 0.43600546875 0.9056071875
vt 0.43600546875 0.9056072265625
vt 0.43600546875 0.9056071484375
vt 0.43600546875 0.9056071484375
vt 0.43600546875 0.9056072265625
vt 0.43600546875 0.9056071484375
vt 0.43600546875 0.9056071484375
vt 0.43600546875 0.9056072265625
vt 0.43600546875 0.9056072265625
vt 0.43600546875 0.9056071875
vt 0.43600546875 0.9056071875
vt 0.43600546875 0.9056072265625
vt 0.43600546875 0.9056072265625
vt 0.43600546875 0.9056072265625
vt 0.43600546875 0.9056071875
vt 0.43600546875 0.9056071875
vt 0.43600546875 0.9056072265625
vt 0.4365763671875 0.90234375
vt 0.436936796875 0.90234375
vt 0.436936796875 0.90254078125
vt 0.4365763671875 0.90254078125
vt 0.4367228125 0.90234375
vt 0.4367566015625 0.90234375
vt 0.4367566015625 0.90254078125
vt 0.4367228125 0.90254078125
vt 0.4365763671875 0.90234375
vt 0.436936796875 0.90234375
vt 0.436936796875 0.90254078125
vt 0.4365763671875 0.90254078125
vt 0.4367453515625 0.90234375
vt 0.436779140625 0.90234375
vt 0.436779140625 0.90254078125
vt 0.4367453515625 0.90254078125
vt 0.4367566015625 0.90332890625
vt 0.4367228125 0.90332890625
vt 0.4367228125 0.903131875
vt 0.4367566015625 0.903131875
vt 0.436936796875 0.90332890625
vt 0.4365763671875 0.90332890625
vt 0.4365763671875 0.903131875
vt 0.436936796875 0.903131875
vt 0.436779140625 0.90332890625
vt 0.4367453515625 0.90332890625
vt 0.4367453515625 0.903131875
vt 0.436779140625 0.903131875
vt 0.436936796875 0.90332890625
vt 0.4365763671875 0.90332890625
vt 0.4365763671875 0.903131875
vt 0.436936796875 0.903131875
vt 0.4296875 0.8799479166666667
vt 0.4296875 0.8888020833333333
vt 0.42761948529411764 0.8888020833333333
vt 0.42761948529411764 0.8799479166666667
vt 0.4296875 0.8888020833333333
vt 0.42761948529411764 0.8888020833333333
vt 0.42761948529411764 0.8799479166666667
vt 0.41613051470588247 0.9375
vt 0.42761948529411764 0.8888020833333333
vt 0.42761948529411764 0.87109375
vt 0.4296875 0.87109375
vt 0.4296875 0.8888020833333333
vt 0.4296875 0.8888020833333333
vt 0.42761948529411764 0.8888020833333333
vt 0.42761948529411764 0.87109375
vt 0.41613051470588247 0.9286458333333334
vt 0.4296875 0.8888020833333333
vt 0.42761948529411764 0.8888020833333333
vt 0.42761948529411764 0.8799479166666667
vt 0.4296875 0.8799479166666667
vt 0.4296875 0.8799479166666667
vt 0.4296875 0.8888020833333333
vt 0.42761948529411764 0.8888020833333333
vt 0.4140625 0.9375
vt 0.4296875 0.8799479166666667
vt 0.4296875 0.8888020833333333
vt 0.42761948529411764 0.8888020833333333
vt 0.42761948529411764 0.8799479166666667
vt 0.4296875 0.8888020833333333
vt 0.42761948529411764 0.8888020833333333
vt 0.42761948529411764 0.8799479166666667
vt 0.41613051470588247 0.9375
vt 0.42761948529411764 0.8888020833333333
vt 0.42761948529411764 0.87109375
vt 0.4296875 0.87109375
vt 0.4296875 0.8888020833333333
vt 0.4296875 0.8888020833333333
vt 0.42761948529411764 0.8888020833333333
vt 0.42761948529411764 0.87109375
vt 0.41613051470588247 0.9286458333333334
vt 0.4296875 0.8888020833333333
vt 0.42761948529411764 0.8888020833333333
vt 0.42761948529411764 0.8799479166666667
vt 0.4296875 0.8799479166666667
vt 0.4296875 0.8799479166666667
vt 0.4296875 0.8888020833333333
vt 0.42761948529411764 0.8888020833333333
vt 0.4140625 0.9375
vt 0.42761948529411764 0.8888020833333333
vt 0.4296875 0.8888020833333333
vt 0.4296875 0.8799479166666667
vt 0.42761948529411764 0.8799479166666667
vt 0.42761948529411764 0.8799479166666667
vt 0.42761948529411764 0.8888020833333333
vt 0.4296875 0.8888020833333333
vt 0.41613051470588247 0.9375
vt 0.4296875 0.87109375
vt 0.42761948529411764 0.87109375
vt 0.42761948529411764 0.8888020833333333
vt 0.4296875 0.8888020833333333
vt 0.42761948529411764 0.87109375
vt 0.42761948529411764 0.8888020833333333
vt 0.4296875 0.8888020833333333
vt 0.41613051470588247 0.9286458333333334
vt 0.42761948529411764 0.8799479166666667
vt 0.42761948529411764 0.8888020833333333
vt 0.4296875 0.8888020833333333
vt 0.4296875 0.8799479166666667
vt 0.42761948529411764 0.8888020833333333
vt 0.4296875 0.8888020833333333
vt 0.4296875 0.8799479166666667
vt 0.4140625 0.9375
vt 0.42761948529411764 0.8888020833333333
vt 0.4296875 0.8799479166666667
vt 0.42761948529411764 0.8799479166666667
vt 0.42761948529411764 0.8799479166666667
vt 0.4296875 0.8888020833333333
vt 0.41613051470588247 0.9375
vt 0.42761948529411764 0.8888020833333333
vt 0.42761948529411764 0.87109375
vt 0.4296875 0.87109375
vt 0.4296875 0.8888020833333333
vt 0.4296875 0.8888020833333333
vt 0.42761948529411764 0.8888020833333333
vt 0.42761948529411764 0.87109375
vt 0.41613051470588247 0.9286458333333334
vt 0.4296875 0.8799479166666667
vt 0.4296875 0.8888020833333333
vt 0.42761948529411764 0.8888020833333333
vt 0.4140625 0.9375
vn -1 0 0
vn 1 0 0
vn 0 1 2.220446049250313e-16
vn 0 -0.44721359549995804 0.8944271909999161
vn 0 -0.16439898730535726 -0.9863939238321437
vn 1 0 0
vn -1 0 0
vn 0 1 0
vn 0 -1 0
vn 0 -0.14654866108946235 0.9892034623538708
vn 0 0 -1
vn 1 0 0
vn -1 0 0
vn 0 1 0
vn 0 -1 0
vn 0 0 1
vn 0 0 -1
vn 0 0.7071067811865476 0.7071067811865476
vn 1 0 0
vn 0 0.7071067811865476 -0.7071067811865476
vn -1 0 0
vn 1 0 0
vn 0 -0.7071067811865476 0.7071067811865476
vn -1 0 0
vn 0 -0.7071067811865476 -0.7071067811865476
vn -1 0 0
vn 1 0 0
vn 0 1 0
vn 0 -1 0
vn 0 -0.14654866108946235 0.9892034623538708
vn 0 0 -1
vn -1 0 0
vn 1 0 0
vn 0 0.7071067811865476 -0.7071067811865476
vn 0 -1 0
vn 0 0 1
vn 0 0 -1
vn 1 0 0
vn -1 0 0
vn 0 0.7071067811865476 -0.7071067811865476
vn 0 -1 0
vn 0 0 1
vn 0 0 -1
vn 1 0 0
vn -1 0 0
vn 0 1 0
vn 0 -0.44721359549995804 0.8944271909999161
vn 0 -0.1643989873053573 -0.9863939238321437
usemtl m_9861ac33-7e58-3180-8b12-1f6e995d8b75
f 2/1/1 1/2/1 3/3/1
f 4/4/2 5/5/2 6/6/2
f 5/7/3 2/8/3 1/9/3 4/10/3
f 3/11/4 2/12/4 5/13/4 6/14/4
f 4/15/5 1/16/5 3/17/5 6/18/5
f 8/19/6 7/20/6 9/21/6 10/22/6
f 13/23/7 11/24/7 12/25/7 14/26/7
f 11/27/8 7/28/8 8/29/8 12/30/8
f 10/31/9 9/32/9 13/33/9 14/34/9
f 9/35/10 7/36/10 11/37/10 13/38/10
f 12/39/11 8/40/11 10/41/11 14/42/11
f 15/43/12 16/44/12 17/45/12 18/46/12
f 19/47/13 20/48/13 21/49/13 22/50/13
f 23/51/14 24/52/14 25/53/14 26/54/14
f 27/55/15 28/56/15 29/57/15 30/58/15
f 17/59/16 16/60/16 20/61/16 19/62/16
f 21/63/17 15/64/17 18/65/17 22/66/17
f 24/67/18 23/68/18 20/69/18 16/70/18
f 25/71/19 24/72/19 16/73/19 15/74/19
f 26/75/20 25/76/20 15/77/20 21/78/20
f 23/79/21 26/80/21 21/81/21 20/82/21
f 28/83/22 27/84/22 18/85/22 17/86/22
f 29/87/23 28/88/23 17/89/23 19/90/23
f 30/91/24 29/92/24 19/93/24 22/94/24
f 27/95/25 30/96/25 22/97/25 18/98/25
f 33/99/26 31/100/26 32/101/26 34/102/26
f 36/103/27 35/104/27 37/105/27 38/106/27
f 32/107/28 31/108/28 35/109/28 36/110/28
f 37/111/29 33/112/29 34/113/29 38/114/29
f 35/115/30 31/116/30 33/117/30 37/118/30
f 34/119/31 32/120/31 36/121/31 38/122/31
f 41/123/32 39/124/32 40/125/32 42/126/32
f 44/127/33 43/128/33 45/129/33 46/130/33
f 40/131/34 39/132/34 43/133/34 44/134/34
f 45/135/35 41/136/35 42/137/35 46/138/35
f 43/139/36 39/140/36 41/141/36 45/142/36
f 42/143/37 40/144/37 44/145/37 46/146/37
f 48/147/38 47/148/38 49/149/38 50/150/38
f 53/151/39 51/152/39 52/153/39 54/154/39
f 51/155/40 47/156/40 48/157/40 52/158/40
f 50/159/41 49/160/41 53/161/41 54/162/41
f 49/163/42 47/164/42 51/165/42 53/166/42
f 52/167/43 48/168/43 50/169/43 54/170/43
f 55/171/44 56/172/44 57/173/44
f 59/174/45 58/175/45 60/176/45
f 55/177/46 56/178/46 59/179/46 58/180/46
f 59/181/47 56/182/47 57/183/47 60/184/47
f 57/185/48 55/186/48 58/187/48 60/188/48