# Made in Blockbench 4.12.5
mtllib rearbumper_additional.mtl

o cuboid
v 0.5625 0.25 0.015625
v 0.5625 0.25 -0.015625
v 0.875 -0.125 0.015625
v 0.875 -0.125 -0.015625
v 0.453125 0.25 0.015625
v 0.453125 0.25 -0.015625
v 0.765625 -0.125 0.015625
v 0.765625 -0.125 -0.015625
v 1.125 -0.140625 -0.03125
v 1.125 -0.140625 0.03125
v 1.125 -0.21875 0.03125
v 1.125 -0.21875 -0.03125
v -1.125 -0.21875 0.03125
v -1.125 -0.140625 0.03125
v -1.125 -0.140625 -0.03125
v -1.125 -0.21875 -0.03125
v -1.125 -0.125 0.015625
v 1.125 -0.125 0.015625
v 1.125 -0.125 -0.015625
v -1.125 -0.125 -0.015625
v 1.125 -0.234375 -0.015625
v 1.125 -0.234375 0.015625
v -1.125 -0.234375 0.015625
v -1.125 -0.234375 -0.015625
v -0.5625 0.25 0.015625
v -0.5625 0.25 -0.015625
v -0.875 -0.125 0.015625
v -0.875 -0.125 -0.015625
v -0.453125 0.25 0.015625
v -0.453125 0.25 -0.015625
v -0.765625 -0.125 0.015625
v -0.765625 -0.125 -0.015625
vt 0.44921875 0.90234375
vt 0.44140625 0.90234375
vt 0.44140625 0.8984375
vt 0.44921875 0.8984375
vt 0.44921875 0.8984375
vt 0.44921875 0.90234375
vt 0.44140625 0.90234375
vt 0.44140625 0.8984375
vt 0.44140625 0.89453125
vt 0.44921875 0.89453125
vt 0.44921875 0.90234375
vt 0.44140625 0.90234375
vt 0.44921875 0.89453125
vt 0.44921875 0.90234375
vt 0.44140625 0.90234375
vt 0.44140625 0.89453125
vt 0.44921875 0.8984375
vt 0.44921875 0.90234375
vt 0.44140625 0.90234375
vt 0.44140625 0.8984375
vt 0.44921875 0.90234375
vt 0.44140625 0.90234375
vt 0.44140625 0.8984375
vt 0.44921875 0.8984375
vt 0.43600546875 0.9056072265625
vt 0.43600546875 0.9056072265625
vt 0.43600546875 0.9056072265625
vt 0.43600546875 0.9056072265625
vt 0.43600546875 0.9056071875
vt 0.43600546875 0.9056071875
vt 0.43600546875 0.9056071875
vt 0.43600546875 0.9056071875
vt 0.43600546875 0.9056072265625
vt 0.43600546875 0.9056071484375
vt 0.43600546875 0.9056071484375
vt 0.43600546875 0.9056072265625
vt 0.43600546875 0.9056071484375
vt 0.43600546875 0.9056071484375
vt 0.43600546875 0.9056072265625
vt 0.43600546875 0.9056072265625
vt 0.43600546875 0.9056071875
vt 0.43600546875 0.9056071875
vt 0.43600546875 0.9056072265625
vt 0.43600546875 0.9056072265625
vt 0.43600546875 0.9056072265625
vt 0.43600546875 0.9056071875
vt 0.43600546875 0.9056071875
vt 0.43600546875 0.9056072265625
vt 0.4365763671875 0.90234375
vt 0.436936796875 0.90234375
vt 0.436936796875 0.90254078125
vt 0.4365763671875 0.90254078125
vt 0.4367228125 0.90234375
vt 0.4367566015625 0.90234375
vt 0.4367566015625 0.90254078125
vt 0.4367228125 0.90254078125
vt 0.4365763671875 0.90234375
vt 0.436936796875 0.90234375
vt 0.436936796875 0.90254078125
vt 0.4365763671875 0.90254078125
vt 0.4367453515625 0.90234375
vt 0.436779140625 0.90234375
vt 0.436779140625 0.90254078125
vt 0.4367453515625 0.90254078125
vt 0.4367566015625 0.90332890625
vt 0.4367228125 0.90332890625
vt 0.4367228125 0.903131875
vt 0.4367566015625 0.903131875
vt 0.436936796875 0.90332890625
vt 0.4365763671875 0.90332890625
vt 0.4365763671875 0.903131875
vt 0.436936796875 0.903131875
vt 0.436779140625 0.90332890625
vt 0.4367453515625 0.90332890625
vt 0.4367453515625 0.903131875
vt 0.436779140625 0.903131875
vt 0.436936796875 0.90332890625
vt 0.4365763671875 0.90332890625
vt 0.4365763671875 0.903131875
vt 0.436936796875 0.903131875
vt 0.44140625 0.8984375
vt 0.44140625 0.90234375
vt 0.44921875 0.90234375
vt 0.44921875 0.8984375
vt 0.44140625 0.90234375
vt 0.44921875 0.90234375
vt 0.44921875 0.8984375
vt 0.44140625 0.8984375
vt 0.44921875 0.90234375
vt 0.44921875 0.89453125
vt 0.44140625 0.89453125
vt 0.44140625 0.90234375
vt 0.44140625 0.90234375
vt 0.44921875 0.90234375
vt 0.44921875 0.89453125
vt 0.44140625 0.89453125
vt 0.44140625 0.90234375
vt 0.44921875 0.90234375
vt 0.44921875 0.8984375
vt 0.44140625 0.8984375
vt 0.44140625 0.8984375
vt 0.44140625 0.90234375
vt 0.44921875 0.90234375
vt 0.44921875 0.8984375
vn 0.7682212795973759 0.6401843996644799 0
vn -0.7682212795973759 -0.6401843996644799 0
vn 0 1 0
vn 0 -1 0
vn 0 0 1
vn 0 0 -1
vn 1 0 0
vn -1 0 0
vn 0 1 0
vn 0 -1 0
vn 0 0 1
vn 0 0 -1
vn 0 0.7071067811865476 0.7071067811865476
vn 1 0 0
vn 0 0.7071067811865476 -0.7071067811865476
vn -1 0 0
vn 1 0 0
vn 0 -0.7071067811865476 0.7071067811865476
vn -1 0 0
vn 0 -0.7071067811865476 -0.7071067811865476
vn -0.7682212795973759 0.6401843996644799 0
vn 0.7682212795973759 -0.6401843996644799 0
vn 0 1 0
vn 0 -1 0
vn 0 0 1
vn 0 0 -1
usemtl m_3ca0de43-5401-a153-cb52-9f1ea36a506f
f 2/1/1 1/2/1 3/3/1 4/4/1
f 7/5/2 5/6/2 6/7/2 8/8/2
f 5/9/3 1/10/3 2/11/3 6/12/3
f 4/13/4 3/14/4 7/15/4 8/16/4
f 3/17/5 1/18/5 5/19/5 7/20/5
f 6/21/6 2/22/6 4/23/6 8/24/6
f 9/25/7 10/26/7 11/27/7 12/28/7
f 13/29/8 14/30/8 15/31/8 16/32/8
f 17/33/9 18/34/9 19/35/9 20/36/9
f 21/37/10 22/38/10 23/39/10 24/40/10
f 11/41/11 10/42/11 14/43/11 13/44/11
f 15/45/12 9/46/12 12/47/12 16/48/12
f 18/49/13 17/50/13 14/51/13 10/52/13
f 19/53/14 18/54/14 10/55/14 9/56/14
f 20/57/15 19/58/15 9/59/15 15/60/15
f 17/61/16 20/62/16 15/63/16 14/64/16
f 22/65/17 21/66/17 12/67/17 11/68/17
f 23/69/18 22/70/18 11/71/18 13/72/18
f 24/73/19 23/74/19 13/75/19 16/76/19
f 21/77/20 24/78/20 16/79/20 12/80/20
f 27/81/21 25/82/21 26/83/21 28/84/21
f 30/85/22 29/86/22 31/87/22 32/88/22
f 26/89/23 25/90/23 29/91/23 30/92/23
f 31/93/24 27/94/24 28/95/24 32/96/24
f 29/97/25 25/98/25 27/99/25 31/100/25
f 28/101/26 26/102/26 30/103/26 32/104/26