# Made in Blockbench 4.12.5
mtllib rearbumper_bar_chrome.mtl

o cuboid
v 0.609375 0 0.0625
v 0.609375 0 -0.09375
v 0.609375 -0.421875 0
v 0.609375 -0.421875 -0.09375
v 0.515625 0 0.0625
v 0.515625 0 -0.09375
v 0.515625 -0.421875 0
v 0.515625 -0.421875 -0.09375
v 0.609375 0.21875 -0.09375
v 0.609375 0.1875 -0.125
v 0.609375 -0.421875 -0.09375
v 0.609375 -0.421875 -0.125
v 0.515625 0.21875 -0.09375
v 0.515625 0.1875 -0.125
v 0.515625 -0.421875 -0.09375
v 0.515625 -0.421875 -0.125
v 1.4375 -0.453125 -0.140625
v 1.4375 -0.4375 -0.046875
v 1.4375 -0.578125 -0.046875
v 1.4375 -0.578125 -0.140625
v -1.4375 -0.578125 -0.046875
v -1.4375 -0.4375 -0.046875
v -1.4375 -0.453125 -0.140625
v -1.4375 -0.578125 -0.140625
v -1.4375 -0.421875 -0.0625
v 1.4375 -0.421875 -0.0625
v 1.4375 -0.4375 -0.125
v -1.4375 -0.4375 -0.125
v 1.4375 -0.59375 -0.125
v 1.4375 -0.59375 -0.0625
v -1.4375 -0.59375 -0.0625
v -1.4375 -0.59375 -0.125
v -1.4375 -0.46875 -0.171875
v 1.4375 -0.46875 -0.171875
v 1.4375 -0.5625 -0.171875
v -1.4375 -0.5625 -0.171875
v 0.609375 -0.421875 -0.0625
v 0.609375 -0.421875 0
v 0.609375 -0.515625 -0.046875
v 0.515625 -0.421875 -0.0625
v 0.515625 -0.421875 0
v 0.515625 -0.515625 -0.046875
v 1.46875 -0.4431818181818181 -0.1484375
v 1.46875 -0.42471590909090906 -0.03125
v 1.46875 -0.5909090909090909 -0.03125
v 1.46875 -0.5909090909090909 -0.1484375
v 1.4375 -0.5909090909090909 -0.03125
v 1.4375 -0.42471590909090906 -0.03125
v 1.4375 -0.4431818181818181 -0.1484375
v 1.4375 -0.5909090909090909 -0.1484375
v 1.4375 -0.40625 -0.05078125
v 1.46875 -0.40625 -0.05078125
v 1.46875 -0.42471590909090906 -0.12890625
v 1.4375 -0.42471590909090906 -0.12890625
v 1.46875 -0.609375 -0.12890625
v 1.46875 -0.609375 -0.05078125
v 1.4375 -0.609375 -0.05078125
v 1.4375 -0.609375 -0.12890625
v 1.4375 -0.4616477272727273 -0.1875
v 1.46875 -0.4616477272727273 -0.1875
v 1.46875 -0.5724431818181819 -0.1875
v 1.4375 -0.5724431818181819 -0.1875
v -1.46875 -0.4431818181818181 -0.1484375
v -1.46875 -0.42471590909090906 -0.03125
v -1.46875 -0.5909090909090909 -0.03125
v -1.46875 -0.5909090909090909 -0.1484375
v -1.4375 -0.5909090909090909 -0.03125
v -1.4375 -0.42471590909090906 -0.03125
v -1.4375 -0.4431818181818181 -0.1484375
v -1.4375 -0.5909090909090909 -0.1484375
v -1.4375 -0.40625 -0.05078125
v -1.46875 -0.40625 -0.05078125
v -1.46875 -0.42471590909090906 -0.12890625
v -1.4375 -0.42471590909090906 -0.12890625
v -1.46875 -0.609375 -0.12890625
v -1.46875 -0.609375 -0.05078125
v -1.4375 -0.609375 -0.05078125
v -1.4375 -0.609375 -0.12890625
v -1.4375 -0.4616477272727273 -0.1875
v -1.46875 -0.4616477272727273 -0.1875
v -1.46875 -0.5724431818181819 -0.1875
v -1.4375 -0.5724431818181819 -0.1875
v -0.609375 -0.421875 -0.0625
v -0.609375 -0.421875 0
v -0.609375 -0.515625 -0.046875
v -0.515625 -0.421875 -0.0625
v -0.515625 -0.421875 0
v -0.515625 -0.515625 -0.046875
v -0.609375 0 0.0625
v -0.609375 0 -0.09375
v -0.609375 -0.421875 0
v -0.609375 -0.421875 -0.09375
v -0.515625 0 0.0625
v -0.515625 0 -0.09375
v -0.515625 -0.421875 0
v -0.515625 -0.421875 -0.09375
v -0.609375 0.21875 -0.09375
v -0.609375 0.1875 -0.125
v -0.609375 -0.421875 -0.09375
v -0.609375 -0.421875 -0.125
v -0.515625 0.21875 -0.09375
v -0.515625 0.1875 -0.125
v -0.515625 -0.421875 -0.09375
v -0.515625 -0.421875 -0.125
vt 0.42761948529411764 0.8888020833333333
vt 0.4296875 0.8888020833333333
vt 0.4296875 0.8799479166666667
vt 0.42761948529411764 0.8799479166666667
vt 0.42761948529411764 0.8799479166666667
vt 0.42761948529411764 0.8888020833333333
vt 0.4296875 0.8888020833333333
vt 0.41613051470588247 0.9375
vt 0.4296875 0.87109375
vt 0.42761948529411764 0.87109375
vt 0.42761948529411764 0.8888020833333333
vt 0.4296875 0.8888020833333333
vt 0.42761948529411764 0.87109375
vt 0.42761948529411764 0.8888020833333333
vt 0.4296875 0.8888020833333333
vt 0.41613051470588247 0.9286458333333334
vt 0.42761948529411764 0.8799479166666667
vt 0.42761948529411764 0.8888020833333333
vt 0.4296875 0.8888020833333333
vt 0.4296875 0.8799479166666667
vt 0.42761948529411764 0.8888020833333333
vt 0.4296875 0.8888020833333333
vt 0.4296875 0.8799479166666667
vt 0.4140625 0.9375
vt 0.42761948529411764 0.8888020833333333
vt 0.4296875 0.8888020833333333
vt 0.4296875 0.8799479166666667
vt 0.42761948529411764 0.8799479166666667
vt 0.42761948529411764 0.8799479166666667
vt 0.42761948529411764 0.8888020833333333
vt 0.4296875 0.8888020833333333
vt 0.41613051470588247 0.9375
vt 0.4296875 0.87109375
vt 0.42761948529411764 0.87109375
vt 0.42761948529411764 0.8888020833333333
vt 0.4296875 0.8888020833333333
vt 0.42761948529411764 0.87109375
vt 0.42761948529411764 0.8888020833333333
vt 0.4296875 0.8888020833333333
vt 0.41613051470588247 0.9286458333333334
vt 0.42761948529411764 0.8799479166666667
vt 0.42761948529411764 0.8888020833333333
vt 0.4296875 0.8888020833333333
vt 0.4296875 0.8799479166666667
vt 0.42761948529411764 0.8888020833333333
vt 0.4296875 0.8888020833333333
vt 0.4296875 0.8799479166666667
vt 0.4140625 0.9375
vt 0.4720711286784618 0.7515432462993421
vt 0.4720711286784618 0.7490761410361841
vt 0.4720711286784618 0.7472258120888158
vt 0.4720711286784618 0.7466090357730263
vt 0.4720711286784618 0.7515432401315789
vt 0.4720711286784618 0.7490761348684211
vt 0.4720711286784618 0.7472258059210526
vt 0.4720711286784618 0.7466090296052632
vt 0.4720711286784618 0.7472258120888158
vt 0.4720711286784618 0.7472257997532894
vt 0.4720711286784618 0.7466090234375
vt 0.4720711286784618 0.7466090357730263
vt 0.4720711286784618 0.7472257997532894
vt 0.4720711286784618 0.7466090234375
vt 0.4720711286784618 0.7472258120888158
vt 0.4720711286784618 0.7466090357730263
vt 0.4720711286784618 0.7515432401315789
vt 0.4720711286784618 0.7490761348684211
vt 0.4720711286784618 0.7552439041940789
vt 0.4720711286784618 0.7515432462993421
vt 0.4720711286784618 0.7472258120888158
vt 0.4720711286784618 0.7515432401315789
vt 0.4720711286784618 0.7466090296052632
vt 0.4720711286784618 0.7466090357730263
vt 0.4720845643987204 0.7467105263157895
vt 0.472093046875 0.7467105263157895
vt 0.472093046875 0.7547597286184211
vt 0.4720845643987204 0.7485919654605263
vt 0.4720880108930926 0.74609375
vt 0.4720888060965154 0.7467105263157895
vt 0.4720888060965154 0.7485919654605263
vt 0.4720880108930926 0.7510590707236842
vt 0.4720845643987204 0.74609375
vt 0.472093046875 0.74609375
vt 0.472093046875 0.7510590707236842
vt 0.4720845643987204 0.7467416365131578
vt 0.47208854133514455 0.7467105263157895
vt 0.47208933653856733 0.74609375
vt 0.47208933653856733 0.7467416365131578
vt 0.47208854133514455 0.7547597286184211
vt 0.4720888060965154 0.7462493009868421
vt 0.4720880108930926 0.7468660773026315
vt 0.4720880108930926 0.7462181907894737
vt 0.4720888060965154 0.7511524013157895
vt 0.472093046875 0.7468660773026315
vt 0.4720845643987204 0.7462493009868421
vt 0.4720845643987204 0.7511524013157895
vt 0.472093046875 0.7511524013157895
vt 0.47208933653856733 0.7462493009868421
vt 0.47208854133514455 0.7468660773026315
vt 0.47208854133514455 0.7511524013157895
vt 0.47208933653856733 0.7462181907894737
vt 0.472093046875 0.7468660773026315
vt 0.4720845643987204 0.7462493009868421
vt 0.4720845643987204 0.7462181907894737
vt 0.472093046875 0.7462181907894737
vt 0.4691645084820626 0.76953125
vt 0.46484375 0.76953125
vt 0.46484375 0.7689144736842105
vt 0.4691645084820626 0.7689144736842105
vt 0.46705009475679793 0.768297697368421
vt 0.46705009475679793 0.7689144736842105
vt 0.46695816372526466 0.7689144736842105
vt 0.46695816372526466 0.768297697368421
vt 0.46484375 0.767064144736842
vt 0.4691645084820626 0.767064144736842
vt 0.4691645084820626 0.7676809210526316
vt 0.46484375 0.7676809210526316
vt 0.46695816372526466 0.7676809210526316
vt 0.46695816372526466 0.767064144736842
vt 0.46705009475679793 0.767064144736842
vt 0.46705009475679793 0.7676809210526316
vt 0.4296875 0.8799479166666667
vt 0.42761948529411764 0.8888020833333333
vt 0.42761948529411764 0.8799479166666667
vt 0.4296875 0.8888020833333333
vt 0.42761948529411764 0.8799479166666667
vt 0.41613051470588247 0.9375
vt 0.4296875 0.87109375
vt 0.42761948529411764 0.87109375
vt 0.42761948529411764 0.8888020833333333
vt 0.4296875 0.8888020833333333
vt 0.42761948529411764 0.87109375
vt 0.42761948529411764 0.8888020833333333
vt 0.4296875 0.8888020833333333
vt 0.41613051470588247 0.9286458333333334
vt 0.42761948529411764 0.8888020833333333
vt 0.4296875 0.8888020833333333
vt 0.4296875 0.8799479166666667
vt 0.4140625 0.9375
vt 0.4291023786784618 0.8843557462993421
vt 0.4291023786784618 0.8818886410361841
vt 0.4291023786784618 0.8800383120888158
vt 0.4291023786784618 0.8794215357730263
vt 0.4291023786784618 0.8843557401315789
vt 0.4291023786784618 0.8818886348684211
vt 0.4291023786784618 0.8800383059210526
vt 0.4291023786784618 0.8794215296052632
vt 0.4291023786784618 0.8800383120888158
vt 0.4291023786784618 0.8800382997532894
vt 0.4291023786784618 0.8794215234375
vt 0.4291023786784618 0.8794215357730263
vt 0.4291023786784618 0.8800382997532894
vt 0.4291023786784618 0.8794215234375
vt 0.4291023786784618 0.8800383120888158
vt 0.4291023786784618 0.8794215357730263
vt 0.4291023786784618 0.8843557401315789
vt 0.4291023786784618 0.8818886348684211
vt 0.4291023786784618 0.8880564041940789
vt 0.4291023786784618 0.8843557462993421
vt 0.4291023786784618 0.8800383120888158
vt 0.4291023786784618 0.8843557401315789
vt 0.4291023786784618 0.8794215296052632
vt 0.4291023786784618 0.8794215357730263
vt 0.4291158143987204 0.8795230263157895
vt 0.429124296875 0.8795230263157895
vt 0.429124296875 0.8875722286184211
vt 0.4291158143987204 0.8814044654605263
vt 0.4291192608930926 0.87890625
vt 0.4291200560965154 0.8795230263157895
vt 0.4291200560965154 0.8814044654605263
vt 0.4291192608930926 0.8838715707236842
vt 0.4291158143987204 0.87890625
vt 0.429124296875 0.87890625
vt 0.429124296875 0.8838715707236842
vt 0.4291158143987204 0.8795541365131578
vt 0.42911979133514455 0.8795230263157895
vt 0.42912058653856733 0.87890625
vt 0.42912058653856733 0.8795541365131578
vt 0.42911979133514455 0.8875722286184211
vt 0.4291200560965154 0.8790618009868421
vt 0.4291192608930926 0.8796785773026315
vt 0.4291192608930926 0.8790306907894737
vt 0.4291200560965154 0.8839649013157895
vt 0.429124296875 0.8796785773026315
vt 0.4291158143987204 0.8790618009868421
vt 0.4291158143987204 0.8839649013157895
vt 0.429124296875 0.8839649013157895
vt 0.42912058653856733 0.8790618009868421
vt 0.42911979133514455 0.8796785773026315
vt 0.42911979133514455 0.8839649013157895
vt 0.42912058653856733 0.8790306907894737
vt 0.429124296875 0.8796785773026315
vt 0.4291158143987204 0.8790618009868421
vt 0.4291158143987204 0.8790306907894737
vt 0.429124296875 0.8790306907894737
vt 0.4261957584820626 0.90234375
vt 0.421875 0.90234375
vt 0.421875 0.9017269736842105
vt 0.4261957584820626 0.9017269736842105
vt 0.42408134475679793 0.901110197368421
vt 0.42408134475679793 0.9017269736842105
vt 0.42398941372526466 0.9017269736842105
vt 0.42398941372526466 0.901110197368421
vt 0.421875 0.899876644736842
vt 0.4261957584820626 0.899876644736842
vt 0.4261957584820626 0.9004934210526316
vt 0.421875 0.9004934210526316
vt 0.42398941372526466 0.9004934210526316
vt 0.42398941372526466 0.899876644736842
vt 0.42408134475679793 0.899876644736842
vt 0.42408134475679793 0.9004934210526316
vt 0.4291023786784618 0.8800383120888158
vt 0.4291023786784618 0.8818886410361841
vt 0.4291023786784618 0.8843557462993421
vt 0.4291023786784618 0.8794215357730263
vt 0.4291023786784618 0.8800383059210526
vt 0.4291023786784618 0.8818886348684211
vt 0.4291023786784618 0.8843557401315789
vt 0.4291023786784618 0.8794215296052632
vt 0.4291023786784618 0.8794215234375
vt 0.4291023786784618 0.8800382997532894
vt 0.4291023786784618 0.8800383120888158
vt 0.4291023786784618 0.8794215357730263
vt 0.4291023786784618 0.8800383120888158
vt 0.4291023786784618 0.8794215234375
vt 0.4291023786784618 0.8800382997532894
vt 0.4291023786784618 0.8794215357730263
vt 0.4291023786784618 0.8880564041940789
vt 0.4291023786784618 0.8818886348684211
vt 0.4291023786784618 0.8843557401315789
vt 0.4291023786784618 0.8843557462993421
vt 0.4291023786784618 0.8794215296052632
vt 0.4291023786784618 0.8843557401315789
vt 0.4291023786784618 0.8800383120888158
vt 0.4291023786784618 0.8794215357730263
vt 0.429124296875 0.8875722286184211
vt 0.429124296875 0.8795230263157895
vt 0.4291158143987204 0.8795230263157895
vt 0.4291158143987204 0.8814044654605263
vt 0.4291200560965154 0.8814044654605263
vt 0.4291200560965154 0.8795230263157895
vt 0.4291192608930926 0.87890625
vt 0.4291192608930926 0.8838715707236842
vt 0.429124296875 0.8838715707236842
vt 0.429124296875 0.87890625
vt 0.4291158143987204 0.87890625
vt 0.4291158143987204 0.8795541365131578
vt 0.42912058653856733 0.8795541365131578
vt 0.42912058653856733 0.87890625
vt 0.42911979133514455 0.8795230263157895
vt 0.42911979133514455 0.8875722286184211
vt 0.4291192608930926 0.8790306907894737
vt 0.4291192608930926 0.8796785773026315
vt 0.4291200560965154 0.8790618009868421
vt 0.4291200560965154 0.8839649013157895
vt 0.4291158143987204 0.8839649013157895
vt 0.4291158143987204 0.8790618009868421
vt 0.429124296875 0.8796785773026315
vt 0.429124296875 0.8839649013157895
vt 0.42911979133514455 0.8839649013157895
vt 0.42911979133514455 0.8796785773026315
vt 0.42912058653856733 0.8790618009868421
vt 0.42912058653856733 0.8790306907894737
vt 0.4291158143987204 0.8790306907894737
vt 0.4291158143987204 0.8790618009868421
vt 0.429124296875 0.8796785773026315
vt 0.429124296875 0.8790306907894737
vt 0.421875 0.9017269736842105
vt 0.421875 0.90234375
vt 0.4261957584820626 0.90234375
vt 0.4261957584820626 0.9017269736842105
vt 0.42398941372526466 0.9017269736842105
vt 0.42408134475679793 0.9017269736842105
vt 0.42408134475679793 0.901110197368421
vt 0.42398941372526466 0.901110197368421
vt 0.4261957584820626 0.9004934210526316
vt 0.4261957584820626 0.899876644736842
vt 0.421875 0.899876644736842
vt 0.421875 0.9004934210526316
vt 0.42408134475679793 0.899876644736842
vt 0.42398941372526466 0.899876644736842
vt 0.42398941372526466 0.9004934210526316
vt 0.42408134475679793 0.9004934210526316
vt 0.42761948529411764 0.8888020833333333
vt 0.4296875 0.8799479166666667
vt 0.42761948529411764 0.8799479166666667
vt 0.42761948529411764 0.8799479166666667
vt 0.4296875 0.8888020833333333
vt 0.41613051470588247 0.9375
vt 0.42761948529411764 0.8888020833333333
vt 0.42761948529411764 0.87109375
vt 0.4296875 0.87109375
vt 0.4296875 0.8888020833333333
vt 0.4296875 0.8888020833333333
vt 0.42761948529411764 0.8888020833333333
vt 0.42761948529411764 0.87109375
vt 0.41613051470588247 0.9286458333333334
vt 0.4296875 0.8799479166666667
vt 0.4296875 0.8888020833333333
vt 0.42761948529411764 0.8888020833333333
vt 0.4140625 0.9375
vt 0.4296875 0.8799479166666667
vt 0.4296875 0.8888020833333333
vt 0.42761948529411764 0.8888020833333333
vt 0.42761948529411764 0.8799479166666667
vt 0.4296875 0.8888020833333333
vt 0.42761948529411764 0.8888020833333333
vt 0.42761948529411764 0.8799479166666667
vt 0.41613051470588247 0.9375
vt 0.42761948529411764 0.8888020833333333
vt 0.42761948529411764 0.87109375
vt 0.4296875 0.87109375
vt 0.4296875 0.8888020833333333
vt 0.4296875 0.8888020833333333
vt 0.42761948529411764 0.8888020833333333
vt 0.42761948529411764 0.87109375
vt 0.41613051470588247 0.9286458333333334
vt 0.4296875 0.8888020833333333
vt 0.42761948529411764 0.8888020833333333
vt 0.42761948529411764 0.8799479166666667
vt 0.4296875 0.8799479166666667
vt 0.4296875 0.8799479166666667
vt 0.4296875 0.8888020833333333
vt 0.42761948529411764 0.8888020833333333
vt 0.4140625 0.9375
vt 0.4296875 0.8799479166666667
vt 0.4296875 0.8888020833333333
vt 0.42761948529411764 0.8888020833333333
vt 0.42761948529411764 0.8799479166666667
vt 0.4296875 0.8888020833333333
vt 0.42761948529411764 0.8888020833333333
vt 0.42761948529411764 0.8799479166666667
vt 0.41613051470588247 0.9375
vt 0.42761948529411764 0.8888020833333333
vt 0.42761948529411764 0.87109375
vt 0.4296875 0.87109375
vt 0.4296875 0.8888020833333333
vt 0.4296875 0.8888020833333333
vt 0.42761948529411764 0.8888020833333333
vt 0.42761948529411764 0.87109375
vt 0.41613051470588247 0.9286458333333334
vt 0.4296875 0.8888020833333333
vt 0.42761948529411764 0.8888020833333333
vt 0.42761948529411764 0.8799479166666667
vt 0.4296875 0.8799479166666667
vt 0.4296875 0.8799479166666667
vt 0.4296875 0.8888020833333333
vt 0.42761948529411764 0.8888020833333333
vt 0.4140625 0.9375
vn 1 0 0
vn -1 0 0
vn 0 1 0
vn 0 -1 0
vn 0 -0.14654866108946235 0.9892034623538708
vn 0 0 -1
vn 1 0 0
vn -1 0 0
vn 0 0.7071067811865476 -0.7071067811865476
vn 0 -1 0
vn 0 0 1
vn 0 0 -1
vn 1 0 0
vn -1 0 0
vn 0 0.9701425001453319 -0.24253562503633297
vn 0 -1 0
vn 0 0 1
vn 0 0 -1
vn 0 0.7071067811865476 0.7071067811865476
vn 1 0 0
vn 0 0.7071067811865476 -0.7071067811865476
vn -1 0 0
vn 1 0 0
vn 0 -0.7071067811865476 0.7071067811865476
vn -1 0 0
vn 0 -0.7071067811865476 -0.7071067811865476
vn 0 0.8944271909999161 -0.44721359549995804
vn 1 0 0
vn 0 -0.8944271909999161 -0.44721359549995804
vn -1 0 0
vn -1 0 0
vn 1 0 0
vn 0 1 0
vn 0 -0.44721359549995804 0.8944271909999161
vn 0 -0.1643989873053573 -0.9863939238321437
vn 1 0 0
vn -1 0 0
vn 0 0.9731846127764104 -0.23002545392896936
vn 0 -1 0
vn 0 0 1
vn 0 0 -1
vn 0 0.7266466544661513 0.6870113824043601
vn 1 0 0
vn 0 0.7266466544661513 -0.6870113824043601
vn -1 0 0
vn 1 0 0
vn 0 -0.7266466544661513 0.6870113824043601
vn -1 0 0
vn 0 -0.7266466544661513 -0.6870113824043601
vn 0 0.9040722665053029 -0.4273796168934178
vn 1 0 0
vn 0 -0.9040722665053039 -0.4273796168934157
vn -1 0 0
vn -1 0 0
vn 1 0 0
vn 0 0.9731846127764104 -0.23002545392896936
vn 0 -1 0
vn 0 0 1
vn 0 0 -1
vn 0 0.7266466544661513 0.6870113824043601
vn -1 0 0
vn 0 0.7266466544661513 -0.6870113824043601
vn 1 0 0
vn -1 0 0
vn 0 -0.7266466544661513 0.6870113824043601
vn 1 0 0
vn 0 -0.7266466544661513 -0.6870113824043601
vn 0 0.9040722665053029 -0.4273796168934178
vn -1 0 0
vn 0 -0.9040722665053039 -0.4273796168934157
vn 1 0 0
vn 1 0 0
vn -1 0 0
vn 0 1 0
vn 0 -0.44721359549995804 0.8944271909999161
vn 0 -0.1643989873053573 -0.9863939238321437
vn -1 0 0
vn 1 0 0
vn 0 1 0
vn 0 -1 0
vn 0 -0.14654866108946235 0.9892034623538708
vn 0 0 -1
vn -1 0 0
vn 1 0 0
vn 0 0.7071067811865476 -0.7071067811865476
vn 0 -1 0
vn 0 0 1
vn 0 0 -1
usemtl m_9861ac33-7e58-3180-8b12-1f6e995d8b75
f 2/1/1 1/2/1 3/3/1 4/4/1
f 7/5/2 5/6/2 6/7/2 8/8/2
f 5/9/3 1/10/3 2/11/3 6/12/3
f 4/13/4 3/14/4 7/15/4 8/16/4
f 3/17/5 1/18/5 5/19/5 7/20/5
f 6/21/6 2/22/6 4/23/6 8/24/6
f 10/25/7 9/26/7 11/27/7 12/28/7
f 15/29/8 13/30/8 14/31/8 16/32/8
f 13/33/9 9/34/9 10/35/9 14/36/9
f 12/37/10 11/38/10 15/39/10 16/40/10
f 11/41/11 9/42/11 13/43/11 15/44/11
f 14/45/12 10/46/12 12/47/12 16/48/12
f 17/49/13 18/50/13 19/51/13 20/52/13
f 21/53/14 22/54/14 23/55/14 24/56/14
f 25/57/15 26/58/15 27/59/15 28/60/15
f 29/61/16 30/62/16 31/63/16 32/64/16
f 19/65/17 18/66/17 22/67/17 21/68/17
f 33/69/18 34/70/18 35/71/18 36/72/18
f 26/73/19 25/74/19 22/75/19 18/76/19
f 27/77/20 26/78/20 18/79/20 17/80/20
f 28/81/21 27/82/21 17/83/21 23/84/21
f 25/85/22 28/86/22 23/87/22 22/88/22
f 30/89/23 29/90/23 20/91/23 19/92/23
f 31/93/24 30/94/24 19/95/24 21/96/24
f 32/97/25 31/98/25 21/99/25 24/100/25
f 29/101/26 32/102/26 24/103/26 20/104/26
f 34/105/27 33/106/27 23/107/27 17/108/27
f 35/109/28 34/110/28 17/111/28 20/112/28
f 36/113/29 35/114/29 20/115/29 24/116/29
f 33/117/30 36/118/30 24/119/30 23/120/30
f 38/121/31 37/122/31 39/123/31
f 40/124/32 41/125/32 42/126/32
f 41/127/33 38/128/33 37/129/33 40/130/33
f 39/131/34 38/132/34 41/133/34 42/134/34
f 40/135/35 37/136/35 39/137/35 42/138/35
f 43/139/36 44/140/36 45/141/36 46/142/36
f 47/143/37 48/144/37 49/145/37 50/146/37
f 51/147/38 52/148/38 53/149/38 54/150/38
f 55/151/39 56/152/39 57/153/39 58/154/39
f 45/155/40 44/156/40 48/157/40 47/158/40
f 59/159/41 60/160/41 61/161/41 62/162/41
f 52/163/42 51/164/42 48/165/42 44/166/42
f 53/167/43 52/168/43 44/169/43 43/170/43
f 54/171/44 53/172/44 43/173/44 49/174/44
f 51/175/45 54/176/45 49/177/45 48/178/45
f 56/179/46 55/180/46 46/181/46 45/182/46
f 57/183/47 56/184/47 45/185/47 47/186/47
f 58/187/48 57/188/48 47/189/48 50/190/48
f 55/191/49 58/192/49 50/193/49 46/194/49
f 60/195/50 59/196/50 49/197/50 43/198/50
f 61/199/51 60/200/51 43/201/51 46/202/51
f 62/203/52 61/204/52 46/205/52 50/206/52
f 59/207/53 62/208/53 50/209/53 49/210/53
f 65/211/54 64/212/54 63/213/54 66/214/54
f 69/215/55 68/216/55 67/217/55 70/218/55
f 73/219/56 72/220/56 71/221/56 74/222/56
f 77/223/57 76/224/57 75/225/57 78/226/57
f 68/227/58 64/228/58 65/229/58 67/230/58
f 81/231/59 80/232/59 79/233/59 82/234/59
f 68/235/60 71/236/60 72/237/60 64/238/60
f 64/239/61 72/240/61 73/241/61 63/242/61
f 63/243/62 73/244/62 74/245/62 69/246/62
f 69/247/63 74/248/63 71/249/63 68/250/63
f 66/251/64 75/252/64 76/253/64 65/254/64
f 65/255/65 76/256/65 77/257/65 67/258/65
f 67/259/66 77/260/66 78/261/66 70/262/66
f 70/263/67 78/264/67 75/265/67 66/266/67
f 69/267/68 79/268/68 80/269/68 63/270/68
f 63/271/69 80/272/69 81/273/69 66/274/69
f 66/275/70 81/276/70 82/277/70 70/278/70
f 70/279/71 82/280/71 79/281/71 69/282/71
f 83/283/72 84/284/72 85/285/72
f 87/286/73 86/287/73 88/288/73
f 83/289/74 84/290/74 87/291/74 86/292/74
f 87/293/75 84/294/75 85/295/75 88/296/75
f 85/297/76 83/298/76 86/299/76 88/300/76
f 91/301/77 89/302/77 90/303/77 92/304/77
f 94/305/78 93/306/78 95/307/78 96/308/78
f 90/309/79 89/310/79 93/311/79 94/312/79
f 95/313/80 91/314/80 92/315/80 96/316/80
f 93/317/81 89/318/81 91/319/81 95/320/81
f 92/321/82 90/322/82 94/323/82 96/324/82
f 99/325/83 97/326/83 98/327/83 100/328/83
f 102/329/84 101/330/84 103/331/84 104/332/84
f 98/333/85 97/334/85 101/335/85 102/336/85
f 103/337/86 99/338/86 100/339/86 104/340/86
f 101/341/87 97/342/87 99/343/87 103/344/87
f 100/345/88 98/346/88 102/347/88 104/348/88